<?xml version="1.0" encoding="UTF-8" standalone="no"?>
<svg
   version="1.1"
   width="50.300541"
   height="50"
   id="svg21"
   sodipodi:docname="sd.svg"
   inkscape:version="1.1.2 (b8e25be833, 2022-02-05)"
   xmlns:inkscape="http://www.inkscape.org/namespaces/inkscape"
   xmlns:sodipodi="http://sodipodi.sourceforge.net/DTD/sodipodi-0.dtd"
   xmlns="http://www.w3.org/2000/svg"
   xmlns:svg="http://www.w3.org/2000/svg">
  <sodipodi:namedview
     id="namedview23"
     pagecolor="#ffffff"
     bordercolor="#cccccc"
     borderopacity="1"
     inkscape:pageshadow="0"
     inkscape:pageopacity="1"
     inkscape:pagecheckerboard="0"
     showgrid="false"
     fit-margin-top="0"
     fit-margin-left="0"
     fit-margin-right="0"
     fit-margin-bottom="0"
     inkscape:zoom="8.6395559"
     inkscape:cx="18.69309"
     inkscape:cy="27.489839"
     inkscape:window-width="1920"
     inkscape:window-height="1001"
     inkscape:window-x="-9"
     inkscape:window-y="-9"
     inkscape:window-maximized="1"
     inkscape:current-layer="svg21" />
  <defs
     id="defs5">
    <clipPath
       id="cSSoxTvTETve">
      <path
         fill="none"
         stroke="none"
         d="M 0,0 H 57 V 35 H 0 Z"
         id="path2" />
    </clipPath>
    <clipPath
       id="VKXshhFwOBFr">
      <path
         fill="none"
         stroke="none"
         d="M 0,0 H 39 V 35 H 0 Z"
         id="path2-0" />
    </clipPath>
  </defs>
  <g
     id="g1761"
     transform="translate(0.958904,2.9122295)">
    <rect
       style="fill:#000000;fill-rule:evenodd"
       id="rect862"
       width="50"
       height="50"
       x="-0.80863303"
       y="-2.9122295"
       rx="5"
       ry="5" />
    <g
       clip-path="url(#VKXshhFwOBFr)"
       id="g19"
       transform="matrix(2.5,0,0,2.5,-21.176188,-18.955196)"
       style="fill:#ffffff">
      <g
         transform="translate(-73,-241)"
         id="g17"
         style="fill:#ffffff">
        <g
           transform="scale(21)"
           id="g15"
           style="fill:#ffffff">
          <g
             transform="translate(3.8095238,12.563381)"
             id="g9"
             style="fill:#ffffff">
            <path
               fill="#000000"
               stroke="none"
               paint-order="stroke fill markers"
               d="m 0.05175781,-0.01611328 v -0.15966797 q 0.0039063,-0.0244141 0.02734375,-0.0273438 h 0.01904297 q 0.02392578,0.00293 0.02685547,0.0273438 0,0.0649414 0.046875,0.09326172 0.046875,0.02832031 0.11621094,0.02832031 0.0302734,0 0.0563965,-0.01416015 0.026123,-0.01416016 0.0422363,-0.03857422 0.0161133,-0.0244141 0.0161133,-0.0551758 0,-0.0375977 -0.0246582,-0.0673828 -0.0246582,-0.0297852 -0.0612793,-0.0385742 l -0.13085937,-0.0297852 q -0.0361328,-0.008789 -0.0671387,-0.0319824 -0.03100586,-0.0231934 -0.04907226,-0.0563965 -0.01806641,-0.0332031 -0.01806641,-0.0708008 0,-0.0463867 0.02636719,-0.0847168 0.02636719,-0.0383301 0.06860352,-0.0593262 0.0422363,-0.0209961 0.0891113,-0.0209961 0.0839844,0 0.13916016,0.0449219 0.006348,-0.0170898 0.009033,-0.0241699 0.002686,-0.00708 0.008789,-0.0131836 0.006104,-0.006104 0.017334,-0.007568 h 0.007813 q 0.0239258,0.00293 0.0268555,0.0268555 v 0.16015625 q -0.00293,0.0239258 -0.0268555,0.0268555 h -0.019043 q -0.0214844,-0.00293 -0.0258789,-0.0239258 -0.0175781,-0.125 -0.13720704,-0.125 -0.0439453,0 -0.0793457,0.0266113 -0.0354004,0.0266113 -0.0354004,0.0695801 0,0.0332031 0.0246582,0.0585938 0.0246582,0.0253906 0.0583496,0.0332031 l 0.13085938,0.03125 q 0.0385742,0.009277 0.0700684,0.034668 0.0314941,0.0253906 0.0493164,0.0605469 0.0178223,0.0351563 0.0178223,0.0756836 0,0.0493164 -0.0251465,0.09033203 -0.0251465,0.04101563 -0.0671387,0.06445313 -0.0419922,0.0234375 -0.0917969,0.0234375 -0.10400391,0 -0.16601563,-0.04443359 Q 0.11132812,-0.00683594 0.10717773,9.765625e-4 0.10302734,0.00878906 0.08789062,0.01123047 H 0.07910156 Q 0.05566406,0.00732422 0.05175781,-0.01611328 Z"
               id="path7"
               style="fill:#ffffff" />
          </g>
          <g
             transform="translate(4.3345238,12.563381)"
             id="g13"
             style="fill:#ffffff">
            <path
               fill="#000000"
               stroke="none"
               paint-order="stroke fill markers"
               d="m 0.01708984,-0.02783203 v -0.0092773 q 0.0029297,-0.02490235 0.02783203,-0.02783204 H 0.08007812 V -0.54589844 H 0.04492187 q -0.02490234,-0.00293 -0.02783203,-0.0283203 v -0.008789 q 0.0029297,-0.0249023 0.02783203,-0.027832 h 0.22705079 q 0.0527344,0 0.09375,0.029541 0.0410156,0.029541 0.0671387,0.0769043 0.0261231,0.0473633 0.0390625,0.1015625 0.0129395,0.0541992 0.0129395,0.10302734 0,0.0664062 -0.0244141,0.13647461 -0.0244141,0.07006836 -0.0725098,0.11669922 Q 0.33984375,0 0.27197266,0 H 0.04492187 Q 0.02001953,-0.00292969 0.01708984,-0.02783203 m 0.13574219,-0.03710938 h 0.10009766 q 0.0400391,0 0.0703125,-0.02246093 0.0302734,-0.02246094 0.0498047,-0.05810547 0.0195313,-0.0356445 0.0292969,-0.0766602 0.009766,-0.0410156 0.009766,-0.0776367 0,-0.0517578 -0.0175781,-0.109375 -0.0175781,-0.0576172 -0.0534668,-0.097168 -0.0358887,-0.0395508 -0.0881348,-0.0395508 H 0.15283203 Z"
               id="path11-2"
               style="fill:#ffffff" />
          </g>
        </g>
      </g>
    </g>
  </g>
</svg>
